<?xml version="1.0" encoding="UTF-8" standalone="no"?>
<!DOCTYPE svg PUBLIC "-//W3C//DTD SVG 1.1//EN"
 "http://www.w3.org/Graphics/SVG/1.1/DTD/svg11.dtd">
<!-- Generated by graphviz version 14.1.2 (20260124.0452)
 -->
<!-- Title: G Pages: 1 -->
<svg width="571pt" height="657pt"
 viewBox="0.00 0.00 571.00 657.00" xmlns="http://www.w3.org/2000/svg" xmlns:xlink="http://www.w3.org/1999/xlink">
<g id="graph0" class="graph" transform="scale(1 1) rotate(0) translate(4 653)">
<title>G</title><style>.edge>path:hover{stroke-width:8}</style>
<polygon fill="white" stroke="none" points="-4,4 -4,-653 567.2,-653 567.2,4 -4,4"/>
<!-- app_py -->
<g id="node1" class="node">
<title>app_py</title><style>.edge>path:hover{stroke-width:8}</style>
<ellipse fill="#995252" stroke="black" cx="388.2" cy="-18" rx="27" ry="18"/>
<text xml:space="preserve" text-anchor="middle" x="388.2" y="-14.12" font-family="Helvetica,sans-Serif" font-size="10.00" fill="#ffffff">app.py</text>
</g>
<!-- flask -->
<g id="node2" class="node">
<title>flask</title><style>.edge>path:hover{stroke-width:8}</style>
<polygon fill="blue" stroke="black" points="282.2,-145 228.2,-145 228.2,-109 282.2,-109 282.2,-145"/>
<text xml:space="preserve" text-anchor="middle" x="255.2" y="-123.12" font-family="Helvetica,sans-Serif" font-size="10.00" fill="white">flask</text>
</g>
<!-- flask&#45;&gt;app_py -->
<g id="edge1" class="edge">
<title>flask&#45;&gt;app_py</title><style>.edge>path:hover{stroke-width:8}</style>
<path fill="none" stroke="black" d="M388.2,-72C389.15,-64.11 389.46,-55.52 389.45,-47.59"/>
<polygon fill="blue" stroke="black" points="392.96,-47.69 389.27,-37.76 385.96,-47.83 392.96,-47.69"/>
<path fill="none" stroke="black" d="M282.7,-120.63C320.86,-112.39 385.52,-95.21 388.2,-73"/>
</g>
<!-- flask_app -->
<g id="node3" class="node">
<title>flask_app</title><style>.edge>path:hover{stroke-width:8}</style>
<polygon fill="blue" stroke="black" points="284.07,-577 228.32,-577 228.32,-541 284.07,-541 284.07,-577"/>
<text xml:space="preserve" text-anchor="middle" x="256.2" y="-555.12" font-family="Helvetica,sans-Serif" font-size="10.00" fill="white">flask.app</text>
</g>
<!-- flask_app&#45;&gt;flask -->
<g id="edge2" class="edge">
<title>flask_app&#45;&gt;flask</title><style>.edge>path:hover{stroke-width:8}</style>
<path fill="none" stroke="black" d="M433.2,-270C442.48,-198.48 348.14,-156.78 293.15,-138.72"/>
<polygon fill="blue" stroke="black" points="294.43,-135.45 283.84,-135.78 292.32,-142.13 294.43,-135.45"/>
<path fill="none" stroke="black" d="M284.23,-546.73C303.14,-537.87 327.44,-523.86 343.2,-505 352.1,-494.35 434.16,-285.84 433.2,-272"/>
</g>
<!-- flask_ctx -->
<g id="node6" class="node">
<title>flask_ctx</title><style>.edge>path:hover{stroke-width:8}</style>
<polygon fill="blue" stroke="black" points="127.2,-505 73.2,-505 73.2,-469 127.2,-469 127.2,-505"/>
<text xml:space="preserve" text-anchor="middle" x="100.2" y="-483.12" font-family="Helvetica,sans-Serif" font-size="10.00" fill="white">flask.ctx</text>
</g>
<!-- flask_app&#45;&gt;flask_ctx -->
<g id="edge3" class="edge">
<title>flask_app&#45;&gt;flask_ctx</title><style>.edge>path:hover{stroke-width:8}</style>
<path fill="none" stroke="black" d="M217.71,-540.73C193.31,-529.78 161.89,-515.68 137.68,-504.82"/>
<polygon fill="blue" stroke="black" points="216.01,-543.8 226.57,-544.7 218.88,-537.42 216.01,-543.8"/>
<polygon fill="blue" stroke="black" points="139.39,-501.75 128.84,-500.85 136.53,-508.14 139.39,-501.75"/>
</g>
<!-- flask_globals -->
<g id="node7" class="node">
<title>flask_globals</title><style>.edge>path:hover{stroke-width:8}</style>
<polygon fill="blue" stroke="black" points="253.57,-433 182.82,-433 182.82,-397 253.57,-397 253.57,-433"/>
<text xml:space="preserve" text-anchor="middle" x="218.2" y="-411.12" font-family="Helvetica,sans-Serif" font-size="10.00" fill="white">flask.globals</text>
</g>
<!-- flask_app&#45;&gt;flask_globals -->
<g id="edge4" class="edge">
<title>flask_app&#45;&gt;flask_globals</title><style>.edge>path:hover{stroke-width:8}</style>
<path fill="none" stroke="black" d="M248.6,-529.6C241.94,-504.7 232.31,-468.71 225.68,-443.94"/>
<polygon fill="blue" stroke="black" points="245.18,-530.37 251.15,-539.13 251.94,-528.56 245.18,-530.37"/>
<polygon fill="blue" stroke="black" points="229.14,-443.33 223.17,-434.57 222.37,-445.14 229.14,-443.33"/>
</g>
<!-- flask_templating -->
<g id="node11" class="node">
<title>flask_templating</title><style>.edge>path:hover{stroke-width:8}</style>
<polygon fill="blue" stroke="black" points="349.7,-217 288.7,-217 288.7,-181 349.7,-181 349.7,-217"/>
<text xml:space="preserve" text-anchor="middle" x="319.2" y="-200.75" font-family="Helvetica,sans-Serif" font-size="10.00" fill="white">flask.</text>
<text xml:space="preserve" text-anchor="middle" x="319.2" y="-189.5" font-family="Helvetica,sans-Serif" font-size="10.00" fill="white">templating</text>
</g>
<!-- flask_app&#45;&gt;flask_templating -->
<g id="edge5" class="edge">
<title>flask_app&#45;&gt;flask_templating</title><style>.edge>path:hover{stroke-width:8}</style>
<path fill="none" stroke="black" d="M288.05,-533.58C317.65,-507.87 357.2,-464.46 357.2,-416 357.2,-416 357.2,-416 357.2,-342 357.2,-301.18 342.36,-255.93 331.23,-227.72"/>
<polygon fill="blue" stroke="black" points="286.19,-530.58 280.78,-539.69 290.69,-535.94 286.19,-530.58"/>
<polygon fill="blue" stroke="black" points="334.48,-226.43 327.46,-218.49 328,-229.08 334.48,-226.43"/>
</g>
<!-- flask_blueprints -->
<g id="node4" class="node">
<title>flask_blueprints</title><style>.edge>path:hover{stroke-width:8}</style>
<polygon fill="blue" stroke="black" points="220.2,-217 162.2,-217 162.2,-181 220.2,-181 220.2,-217"/>
<text xml:space="preserve" text-anchor="middle" x="191.2" y="-200.75" font-family="Helvetica,sans-Serif" font-size="10.00" fill="white">flask.</text>
<text xml:space="preserve" text-anchor="middle" x="191.2" y="-189.5" font-family="Helvetica,sans-Serif" font-size="10.00" fill="white">blueprints</text>
</g>
<!-- flask_blueprints&#45;&gt;flask -->
<g id="edge6" class="edge">
<title>flask_blueprints&#45;&gt;flask</title><style>.edge>path:hover{stroke-width:8}</style>
<path fill="none" stroke="black" d="M207.02,-180.7C214.54,-172.47 223.67,-162.48 231.96,-153.42"/>
<polygon fill="blue" stroke="black" points="234.38,-155.96 238.54,-146.22 229.21,-151.24 234.38,-155.96"/>
</g>
<!-- flask_config -->
<g id="node5" class="node">
<title>flask_config</title><style>.edge>path:hover{stroke-width:8}</style>
<ellipse fill="#85b653" stroke="black" cx="39.2" cy="-199" rx="39.2" ry="18"/>
<text xml:space="preserve" text-anchor="middle" x="39.2" y="-195.12" font-family="Helvetica,sans-Serif" font-size="10.00" fill="#000000">flask.config</text>
</g>
<!-- flask_config&#45;&gt;flask -->
<g id="edge7" class="edge">
<title>flask_config&#45;&gt;flask</title><style>.edge>path:hover{stroke-width:8}</style>
<path fill="none" stroke="black" d="M70.61,-187.82C109.41,-175.25 175.38,-153.87 217.05,-140.36"/>
<polygon fill="#85b653" stroke="black" points="217.99,-143.74 226.42,-137.33 215.83,-137.08 217.99,-143.74"/>
</g>
<!-- flask_ctx&#45;&gt;flask -->
<g id="edge8" class="edge">
<title>flask_ctx&#45;&gt;flask</title><style>.edge>path:hover{stroke-width:8}</style>
<path fill="none" stroke="black" d="M91.73,-468.51C73.8,-428.99 35.82,-330.21 63.2,-253 73.34,-224.41 90.84,-226.16 106.2,-200"/>
<path fill="none" stroke="black" d="M106.2,-198C127.88,-157.98 180.25,-140.66 216.74,-133.29"/>
<polygon fill="blue" stroke="black" points="217.27,-136.75 226.48,-131.5 216.01,-129.86 217.27,-136.75"/>
</g>
<!-- flask_ctx&#45;&gt;flask_globals -->
<g id="edge10" class="edge">
<title>flask_ctx&#45;&gt;flask_globals</title><style>.edge>path:hover{stroke-width:8}</style>
<path fill="none" stroke="black" d="M137.04,-464.15C150.48,-456.17 165.72,-447.13 179.34,-439.05"/>
<polygon fill="blue" stroke="black" points="135.68,-460.88 128.87,-468.99 139.26,-466.9 135.68,-460.88"/>
<polygon fill="blue" stroke="black" points="180.8,-442.26 187.62,-434.14 177.23,-436.23 180.8,-442.26"/>
</g>
<!-- flask_globals&#45;&gt;flask -->
<g id="edge11" class="edge">
<title>flask_globals&#45;&gt;flask</title><style>.edge>path:hover{stroke-width:8}</style>
<path fill="none" stroke="black" d="M191.2,-270C166.43,-227.79 81.42,-242.2 106.2,-200"/>
<path fill="none" stroke="black" d="M233.2,-342C234.1,-305.73 209.56,-303.29 191.2,-272"/>
</g>
<!-- flask_globals&#45;&gt;flask_blueprints -->
<g id="edge13" class="edge">
<title>flask_globals&#45;&gt;flask_blueprints</title><style>.edge>path:hover{stroke-width:8}</style>
<path fill="none" stroke="black" d="M191.2,-270C183.97,-257.68 183.38,-241.91 184.86,-228.46"/>
<polygon fill="blue" stroke="black" points="188.27,-229.3 186.34,-218.88 181.35,-228.23 188.27,-229.3"/>
</g>
<!-- flask_helpers -->
<g id="node8" class="node">
<title>flask_helpers</title><style>.edge>path:hover{stroke-width:8}</style>
<polygon fill="blue" stroke="black" points="290.95,-289 219.45,-289 219.45,-253 290.95,-253 290.95,-289"/>
<text xml:space="preserve" text-anchor="middle" x="255.2" y="-267.12" font-family="Helvetica,sans-Serif" font-size="10.00" fill="white">flask.helpers</text>
</g>
<!-- flask_globals&#45;&gt;flask_helpers -->
<g id="edge15" class="edge">
<title>flask_globals&#45;&gt;flask_helpers</title><style>.edge>path:hover{stroke-width:8}</style>
<path fill="none" stroke="black" d="M233.2,-342C233.85,-327.78 238.13,-312.63 242.74,-300.07"/>
<polygon fill="blue" stroke="black" points="245.99,-301.37 246.42,-290.78 239.48,-298.79 245.99,-301.37"/>
</g>
<!-- flask_json -->
<g id="node9" class="node">
<title>flask_json</title><style>.edge>path:hover{stroke-width:8}</style>
<polygon fill="blue" stroke="black" points="163.2,-289 105.2,-289 105.2,-253 163.2,-253 163.2,-289"/>
<text xml:space="preserve" text-anchor="middle" x="134.2" y="-267.12" font-family="Helvetica,sans-Serif" font-size="10.00" fill="white">flask.json</text>
</g>
<!-- flask_globals&#45;&gt;flask_json -->
<g id="edge16" class="edge">
<title>flask_globals&#45;&gt;flask_json</title><style>.edge>path:hover{stroke-width:8}</style>
<path fill="none" stroke="black" d="M233.2,-342C233.9,-326.64 201.57,-306.02 173.68,-291.14"/>
<polygon fill="blue" stroke="black" points="175.5,-288.15 165.02,-286.64 172.27,-294.36 175.5,-288.15"/>
<path fill="none" stroke="black" d="M223.59,-396.66C227.54,-382.62 232.37,-362.25 233.2,-344"/>
</g>
<!-- flask_globals&#45;&gt;flask_templating -->
<g id="edge17" class="edge">
<title>flask_globals&#45;&gt;flask_templating</title><style>.edge>path:hover{stroke-width:8}</style>
<path fill="none" stroke="black" d="M233.2,-342C234.93,-304.07 280.16,-321.25 300.2,-289 311.49,-270.84 316.15,-247 318.04,-228.57"/>
<polygon fill="blue" stroke="black" points="321.51,-229.1 318.8,-218.86 314.53,-228.55 321.51,-229.1"/>
</g>
<!-- flask_wrappers -->
<g id="node12" class="node">
<title>flask_wrappers</title><style>.edge>path:hover{stroke-width:8}</style>
<polygon fill="blue" stroke="black" points="195.07,-361 115.32,-361 115.32,-325 195.07,-325 195.07,-361"/>
<text xml:space="preserve" text-anchor="middle" x="155.2" y="-339.12" font-family="Helvetica,sans-Serif" font-size="10.00" fill="white">flask.wrappers</text>
</g>
<!-- flask_globals&#45;&gt;flask_wrappers -->
<g id="edge18" class="edge">
<title>flask_globals&#45;&gt;flask_wrappers</title><style>.edge>path:hover{stroke-width:8}</style>
<path fill="none" stroke="black" d="M195.12,-388.36C189.63,-382.26 183.78,-375.75 178.29,-369.65"/>
<polygon fill="blue" stroke="black" points="192.32,-390.48 201.61,-395.57 197.53,-385.8 192.32,-390.48"/>
<polygon fill="blue" stroke="black" points="180.9,-367.32 171.61,-362.23 175.69,-372 180.9,-367.32"/>
</g>
<!-- flask_helpers&#45;&gt;flask -->
<g id="edge19" class="edge">
<title>flask_helpers&#45;&gt;flask</title><style>.edge>path:hover{stroke-width:8}</style>
<path fill="none" stroke="black" d="M255.2,-252.59C255.2,-228.61 255.2,-185.14 255.2,-156.42"/>
<polygon fill="blue" stroke="black" points="258.7,-156.62 255.2,-146.62 251.7,-156.62 258.7,-156.62"/>
</g>
<!-- flask_helpers&#45;&gt;flask_app -->
<g id="edge20" class="edge">
<title>flask_helpers&#45;&gt;flask_app</title><style>.edge>path:hover{stroke-width:8}</style>
<path fill="none" stroke="black" d="M256.48,-289.38C258.19,-313.51 261.12,-358.54 262.2,-397 263.5,-443.36 260.6,-497.21 258.39,-529.4"/>
<polygon fill="blue" stroke="black" points="254.92,-528.88 257.7,-539.1 261.9,-529.38 254.92,-528.88"/>
</g>
<!-- flask_helpers&#45;&gt;flask_blueprints -->
<g id="edge21" class="edge">
<title>flask_helpers&#45;&gt;flask_blueprints</title><style>.edge>path:hover{stroke-width:8}</style>
<path fill="none" stroke="black" d="M239.38,-252.7C231.86,-244.47 222.73,-234.48 214.44,-225.42"/>
<polygon fill="blue" stroke="black" points="217.19,-223.24 207.86,-218.22 212.02,-227.96 217.19,-223.24"/>
</g>
<!-- flask_helpers&#45;&gt;flask_templating -->
<g id="edge22" class="edge">
<title>flask_helpers&#45;&gt;flask_templating</title><style>.edge>path:hover{stroke-width:8}</style>
<path fill="none" stroke="black" d="M271.02,-252.7C278.54,-244.47 287.67,-234.48 295.96,-225.42"/>
<polygon fill="blue" stroke="black" points="298.38,-227.96 302.54,-218.22 293.21,-223.24 298.38,-227.96"/>
</g>
<!-- flask_json&#45;&gt;flask -->
<g id="edge24" class="edge">
<title>flask_json&#45;&gt;flask</title><style>.edge>path:hover{stroke-width:8}</style>
<path fill="none" stroke="black" d="M118.66,-252.64C107.58,-238.05 96.26,-216.93 106.2,-200"/>
</g>
<!-- flask_signals -->
<g id="node10" class="node">
<title>flask_signals</title><style>.edge>path:hover{stroke-width:8}</style>
<ellipse fill="#85e722" stroke="black" cx="256.2" cy="-631" rx="41.86" ry="18"/>
<text xml:space="preserve" text-anchor="middle" x="256.2" y="-627.12" font-family="Helvetica,sans-Serif" font-size="10.00" fill="#000000">flask.signals</text>
</g>
<!-- flask_signals&#45;&gt;flask -->
<g id="edge26" class="edge">
<title>flask_signals&#45;&gt;flask</title><style>.edge>path:hover{stroke-width:8}</style>
<path fill="none" stroke="black" d="M433.2,-342C429.56,-311.1 436.83,-302.9 433.2,-272"/>
</g>
<!-- flask_signals&#45;&gt;flask_app -->
<g id="edge27" class="edge">
<title>flask_signals&#45;&gt;flask_app</title><style>.edge>path:hover{stroke-width:8}</style>
<path fill="none" stroke="black" d="M256.2,-612.7C256.2,-605.41 256.2,-596.73 256.2,-588.54"/>
<polygon fill="#85e722" stroke="black" points="259.7,-588.62 256.2,-578.62 252.7,-588.62 259.7,-588.62"/>
</g>
<!-- flask_signals&#45;&gt;flask_ctx -->
<g id="edge28" class="edge">
<title>flask_signals&#45;&gt;flask_ctx</title><style>.edge>path:hover{stroke-width:8}</style>
<path fill="none" stroke="black" d="M238.91,-614.26C211.93,-589.71 159.61,-542.08 127.5,-512.85"/>
<polygon fill="#85e722" stroke="black" points="129.89,-510.29 120.14,-506.15 125.18,-515.47 129.89,-510.29"/>
</g>
<!-- flask_signals&#45;&gt;flask_helpers -->
<g id="edge29" class="edge">
<title>flask_signals&#45;&gt;flask_helpers</title><style>.edge>path:hover{stroke-width:8}</style>
<path fill="none" stroke="black" d="M433.2,-414C412.23,-353.73 346.93,-313.01 301.54,-291.14"/>
<polygon fill="#85e722" stroke="black" points="303.25,-288.08 292.7,-287.02 300.28,-294.42 303.25,-288.08"/>
<path fill="none" stroke="black" d="M281.95,-616.49C335.01,-586.58 450.17,-509.94 433.2,-416"/>
</g>
<!-- flask_signals&#45;&gt;flask_templating -->
<g id="edge30" class="edge">
<title>flask_signals&#45;&gt;flask_templating</title><style>.edge>path:hover{stroke-width:8}</style>
<path fill="none" stroke="black" d="M433.2,-414C430.23,-383.03 437.2,-374.85 433.2,-344"/>
<path fill="none" stroke="black" d="M433.2,-342C426.74,-292.21 384.42,-249.54 353.22,-224.33"/>
<polygon fill="#85e722" stroke="black" points="355.57,-221.72 345.54,-218.31 351.25,-227.23 355.57,-221.72"/>
</g>
<!-- flask_templating&#45;&gt;flask -->
<g id="edge31" class="edge">
<title>flask_templating&#45;&gt;flask</title><style>.edge>path:hover{stroke-width:8}</style>
<path fill="none" stroke="black" d="M303.38,-180.7C295.86,-172.47 286.73,-162.48 278.44,-153.42"/>
<polygon fill="blue" stroke="black" points="281.19,-151.24 271.86,-146.22 276.02,-155.96 281.19,-151.24"/>
</g>
<!-- flask_wrappers&#45;&gt;flask -->
<g id="edge33" class="edge">
<title>flask_wrappers&#45;&gt;flask</title><style>.edge>path:hover{stroke-width:8}</style>
<path fill="none" stroke="black" d="M77.2,-270C76.47,-236.33 89.15,-229.04 106.2,-200"/>
<path fill="none" stroke="black" d="M117.03,-324.74C97.51,-313.06 77.71,-295.47 77.2,-272"/>
</g>
<!-- flask_wrappers&#45;&gt;flask_app -->
<g id="edge34" class="edge">
<title>flask_wrappers&#45;&gt;flask_app</title><style>.edge>path:hover{stroke-width:8}</style>
<path fill="none" stroke="black" d="M155.2,-416C145.51,-468.51 197.19,-516.11 230.23,-540.61"/>
</g>
<!-- flask_wrappers&#45;&gt;flask_blueprints -->
<g id="edge35" class="edge">
<title>flask_wrappers&#45;&gt;flask_blueprints</title><style>.edge>path:hover{stroke-width:8}</style>
<path fill="none" stroke="black" d="M77.2,-270C76.42,-234.22 117.88,-216.15 151.01,-207.44"/>
<polygon fill="blue" stroke="black" points="151.48,-210.93 160.38,-205.18 149.84,-204.12 151.48,-210.93"/>
</g>
<!-- flask_wrappers&#45;&gt;flask_ctx -->
<g id="edge36" class="edge">
<title>flask_wrappers&#45;&gt;flask_ctx</title><style>.edge>path:hover{stroke-width:8}</style>
<path fill="none" stroke="black" d="M155.2,-416C151.3,-437.13 135.42,-455.95 121.72,-468.74"/>
<path fill="none" stroke="black" d="M156.94,-361.42C157.75,-372.78 158.24,-388.19 156.75,-402.94"/>
<polygon fill="blue" stroke="black" points="153.33,-402.11 155.41,-412.5 160.26,-403.08 153.33,-402.11"/>
</g>
<!-- flask_wrappers&#45;&gt;flask_helpers -->
<g id="edge38" class="edge">
<title>flask_wrappers&#45;&gt;flask_helpers</title><style>.edge>path:hover{stroke-width:8}</style>
<path fill="none" stroke="black" d="M189.22,-318.18C199.6,-310.92 211.01,-302.93 221.37,-295.68"/>
<polygon fill="blue" stroke="black" points="187.6,-315.05 181.42,-323.65 191.62,-320.78 187.6,-315.05"/>
<polygon fill="blue" stroke="black" points="223.12,-298.73 229.3,-290.13 219.1,-293 223.12,-298.73"/>
</g>
<!-- flask_wrappers&#45;&gt;flask_json -->
<g id="edge39" class="edge">
<title>flask_wrappers&#45;&gt;flask_json</title><style>.edge>path:hover{stroke-width:8}</style>
<path fill="none" stroke="black" d="M146.74,-313.81C145.37,-309.24 143.95,-304.5 142.58,-299.93"/>
<polygon fill="blue" stroke="black" points="143.35,-314.67 149.57,-323.25 150.05,-312.66 143.35,-314.67"/>
<polygon fill="blue" stroke="black" points="145.99,-299.13 139.77,-290.55 139.29,-301.14 145.99,-299.13"/>
</g>
<!-- psycopg -->
<g id="node13" class="node">
<title>psycopg</title><style>.edge>path:hover{stroke-width:8}</style>
<ellipse fill="#33cccc" stroke="black" cx="492.2" cy="-343" rx="31.21" ry="18"/>
<text xml:space="preserve" text-anchor="middle" x="492.2" y="-339.12" font-family="Helvetica,sans-Serif" font-size="10.00" fill="#000000">psycopg</text>
</g>
<!-- src_db -->
<g id="node15" class="node">
<title>src_db</title><style>.edge>path:hover{stroke-width:8}</style>
<ellipse fill="#7f4cb3" stroke="black" cx="536.2" cy="-199" rx="27" ry="18"/>
<text xml:space="preserve" text-anchor="middle" x="536.2" y="-195.12" font-family="Helvetica,sans-Serif" font-size="10.00" fill="#ffffff">src.db</text>
</g>
<!-- psycopg&#45;&gt;src_db -->
<g id="edge40" class="edge">
<title>psycopg&#45;&gt;src_db</title><style>.edge>path:hover{stroke-width:8}</style>
<path fill="none" stroke="black" d="M481.2,-270C483.29,-250.46 496.87,-233.06 510.01,-220.5"/>
<polygon fill="#33cccc" stroke="black" points="512.2,-223.24 517.33,-213.97 507.54,-218.02 512.2,-223.24"/>
</g>
<!-- src_query_data -->
<g id="node16" class="node">
<title>src_query_data</title><style>.edge>path:hover{stroke-width:8}</style>
<ellipse fill="#7546a4" stroke="black" cx="481.2" cy="-127" rx="47.63" ry="18"/>
<text xml:space="preserve" text-anchor="middle" x="481.2" y="-123.12" font-family="Helvetica,sans-Serif" font-size="10.00" fill="#ffffff">src.query_data</text>
</g>
<!-- psycopg&#45;&gt;src_query_data -->
<g id="edge41" class="edge">
<title>psycopg&#45;&gt;src_query_data</title><style>.edge>path:hover{stroke-width:8}</style>
<path fill="none" stroke="black" d="M486.94,-324.8C483.24,-310.67 479.26,-290.1 481.2,-272"/>
<path fill="none" stroke="black" d="M481.2,-270C485.4,-230.75 484.35,-185.04 482.97,-156.32"/>
<polygon fill="#33cccc" stroke="black" points="486.48,-156.42 482.45,-146.62 479.49,-156.8 486.48,-156.42"/>
</g>
<!-- src -->
<g id="node14" class="node">
<title>src</title><style>.edge>path:hover{stroke-width:8}</style>
<ellipse fill="#8547c2" stroke="black" cx="388.2" cy="-127" rx="27" ry="18"/>
<text xml:space="preserve" text-anchor="middle" x="388.2" y="-123.12" font-family="Helvetica,sans-Serif" font-size="10.00" fill="#ffffff">src</text>
</g>
<!-- src&#45;&gt;app_py -->
<g id="edge42" class="edge">
<title>src&#45;&gt;app_py</title><style>.edge>path:hover{stroke-width:8}</style>
<path fill="none" stroke="black" d="M387.16,-108.75C386.79,-98.36 386.77,-84.88 388.2,-73"/>
</g>
<!-- src_db&#45;&gt;src_query_data -->
<g id="edge43" class="edge">
<title>src_db&#45;&gt;src_query_data</title><style>.edge>path:hover{stroke-width:8}</style>
<path fill="none" stroke="black" d="M523.99,-182.46C517.28,-173.92 508.78,-163.1 501.13,-153.36"/>
<polygon fill="#7f4cb3" stroke="black" points="504,-151.36 495.07,-145.66 498.5,-155.68 504,-151.36"/>
</g>
<!-- src_query_data&#45;&gt;app_py -->
<g id="edge44" class="edge">
<title>src_query_data&#45;&gt;app_py</title><style>.edge>path:hover{stroke-width:8}</style>
<path fill="none" stroke="black" d="M447.32,-114.02C420.05,-103.29 386.5,-87.11 388.2,-73"/>
</g>
</g>
</svg>
