<?xml version="1.0" encoding="UTF-8" standalone="no"?>
<!DOCTYPE svg PUBLIC "-//W3C//DTD SVG 1.1//EN"
 "http://www.w3.org/Graphics/SVG/1.1/DTD/svg11.dtd">
<!-- Generated by graphviz version 14.1.2 (20260124.0452)
 -->
<!-- Title: G Pages: 1 -->
<svg width="527pt" height="657pt"
 viewBox="0.00 0.00 527.00 657.00" xmlns="http://www.w3.org/2000/svg" xmlns:xlink="http://www.w3.org/1999/xlink">
<g id="graph0" class="graph" transform="scale(1 1) rotate(0) translate(4 653)">
<title>G</title><style>.edge>path:hover{stroke-width:8}</style>
<polygon fill="white" stroke="none" points="-4,4 -4,-653 522.62,-653 522.62,4 -4,4"/>
<!-- app_py -->
<g id="node1" class="node">
<title>app_py</title><style>.edge>path:hover{stroke-width:8}</style>
<ellipse fill="#995252" stroke="black" cx="375.41" cy="-18" rx="27" ry="18"/>
<text xml:space="preserve" text-anchor="middle" x="375.41" y="-14.12" font-family="Helvetica,sans-Serif" font-size="10.00" fill="#ffffff">app.py</text>
</g>
<!-- flask -->
<g id="node2" class="node">
<title>flask</title><style>.edge>path:hover{stroke-width:8}</style>
<polygon fill="blue" stroke="black" points="312.41,-145 258.41,-145 258.41,-109 312.41,-109 312.41,-145"/>
<text xml:space="preserve" text-anchor="middle" x="285.41" y="-123.12" font-family="Helvetica,sans-Serif" font-size="10.00" fill="white">flask</text>
</g>
<!-- flask&#45;&gt;app_py -->
<g id="edge1" class="edge">
<title>flask&#45;&gt;app_py</title><style>.edge>path:hover{stroke-width:8}</style>
<path fill="none" stroke="black" d="M312.47,-115.95C339.02,-105.22 375.55,-87.78 375.41,-73"/>
<path fill="none" stroke="black" d="M375.41,-72C375.34,-64.06 375.31,-55.44 375.31,-47.52"/>
<polygon fill="blue" stroke="black" points="378.81,-47.7 375.33,-37.7 371.81,-47.69 378.81,-47.7"/>
</g>
<!-- flask_app -->
<g id="node3" class="node">
<title>flask_app</title><style>.edge>path:hover{stroke-width:8}</style>
<polygon fill="blue" stroke="black" points="226.29,-577 170.54,-577 170.54,-541 226.29,-541 226.29,-577"/>
<text xml:space="preserve" text-anchor="middle" x="198.41" y="-555.12" font-family="Helvetica,sans-Serif" font-size="10.00" fill="white">flask.app</text>
</g>
<!-- flask_app&#45;&gt;flask -->
<g id="edge2" class="edge">
<title>flask_app&#45;&gt;flask</title><style>.edge>path:hover{stroke-width:8}</style>
<path fill="none" stroke="black" d="M226.46,-549.87C276.37,-533.48 375.41,-491.44 375.41,-416 375.41,-416 375.41,-416 375.41,-342 375.41,-303.69 325.77,-204.25 300.22,-155.61"/>
<polygon fill="blue" stroke="black" points="303.35,-154.03 295.58,-146.83 297.16,-157.31 303.35,-154.03"/>
</g>
<!-- flask_ctx -->
<g id="node6" class="node">
<title>flask_ctx</title><style>.edge>path:hover{stroke-width:8}</style>
<polygon fill="blue" stroke="black" points="69.41,-505 15.41,-505 15.41,-469 69.41,-469 69.41,-505"/>
<text xml:space="preserve" text-anchor="middle" x="42.41" y="-483.12" font-family="Helvetica,sans-Serif" font-size="10.00" fill="white">flask.ctx</text>
</g>
<!-- flask_app&#45;&gt;flask_ctx -->
<g id="edge3" class="edge">
<title>flask_app&#45;&gt;flask_ctx</title><style>.edge>path:hover{stroke-width:8}</style>
<path fill="none" stroke="black" d="M159.92,-540.73C135.52,-529.78 104.1,-515.68 79.89,-504.82"/>
<polygon fill="blue" stroke="black" points="158.22,-543.8 168.78,-544.7 161.09,-537.42 158.22,-543.8"/>
<polygon fill="blue" stroke="black" points="81.6,-501.75 71.05,-500.85 78.74,-508.14 81.6,-501.75"/>
</g>
<!-- flask_globals -->
<g id="node7" class="node">
<title>flask_globals</title><style>.edge>path:hover{stroke-width:8}</style>
<polygon fill="blue" stroke="black" points="195.79,-433 125.04,-433 125.04,-397 195.79,-397 195.79,-433"/>
<text xml:space="preserve" text-anchor="middle" x="160.41" y="-411.12" font-family="Helvetica,sans-Serif" font-size="10.00" fill="white">flask.globals</text>
</g>
<!-- flask_app&#45;&gt;flask_globals -->
<g id="edge4" class="edge">
<title>flask_app&#45;&gt;flask_globals</title><style>.edge>path:hover{stroke-width:8}</style>
<path fill="none" stroke="black" d="M190.81,-529.6C184.15,-504.7 174.52,-468.71 167.89,-443.94"/>
<polygon fill="blue" stroke="black" points="187.39,-530.37 193.36,-539.13 194.16,-528.56 187.39,-530.37"/>
<polygon fill="blue" stroke="black" points="171.35,-443.33 165.38,-434.57 164.58,-445.14 171.35,-443.33"/>
</g>
<!-- flask_templating -->
<g id="node11" class="node">
<title>flask_templating</title><style>.edge>path:hover{stroke-width:8}</style>
<polygon fill="blue" stroke="black" points="286.91,-217 225.91,-217 225.91,-181 286.91,-181 286.91,-217"/>
<text xml:space="preserve" text-anchor="middle" x="256.41" y="-200.75" font-family="Helvetica,sans-Serif" font-size="10.00" fill="white">flask.</text>
<text xml:space="preserve" text-anchor="middle" x="256.41" y="-189.5" font-family="Helvetica,sans-Serif" font-size="10.00" fill="white">templating</text>
</g>
<!-- flask_app&#45;&gt;flask_templating -->
<g id="edge5" class="edge">
<title>flask_app&#45;&gt;flask_templating</title><style>.edge>path:hover{stroke-width:8}</style>
<path fill="none" stroke="black" d="M230.26,-533.58C259.86,-507.87 299.41,-464.46 299.41,-416 299.41,-416 299.41,-416 299.41,-342 299.41,-300.84 282.66,-255.74 270.07,-227.65"/>
<polygon fill="blue" stroke="black" points="228.4,-530.58 222.99,-539.69 232.9,-535.94 228.4,-530.58"/>
<polygon fill="blue" stroke="black" points="273.34,-226.39 265.96,-218.79 266.99,-229.34 273.34,-226.39"/>
</g>
<!-- flask_blueprints -->
<g id="node4" class="node">
<title>flask_blueprints</title><style>.edge>path:hover{stroke-width:8}</style>
<polygon fill="blue" stroke="black" points="162.41,-217 104.41,-217 104.41,-181 162.41,-181 162.41,-217"/>
<text xml:space="preserve" text-anchor="middle" x="133.41" y="-200.75" font-family="Helvetica,sans-Serif" font-size="10.00" fill="white">flask.</text>
<text xml:space="preserve" text-anchor="middle" x="133.41" y="-189.5" font-family="Helvetica,sans-Serif" font-size="10.00" fill="white">blueprints</text>
</g>
<!-- flask_blueprints&#45;&gt;flask -->
<g id="edge6" class="edge">
<title>flask_blueprints&#45;&gt;flask</title><style>.edge>path:hover{stroke-width:8}</style>
<path fill="none" stroke="black" d="M162.72,-184.5C186.9,-173.36 221.39,-157.48 247.65,-145.39"/>
<polygon fill="blue" stroke="black" points="248.99,-148.63 256.61,-141.26 246.06,-142.27 248.99,-148.63"/>
</g>
<!-- flask_config -->
<g id="node5" class="node">
<title>flask_config</title><style>.edge>path:hover{stroke-width:8}</style>
<ellipse fill="#85b653" stroke="black" cx="382.41" cy="-199" rx="39.2" ry="18"/>
<text xml:space="preserve" text-anchor="middle" x="382.41" y="-195.12" font-family="Helvetica,sans-Serif" font-size="10.00" fill="#000000">flask.config</text>
</g>
<!-- flask_config&#45;&gt;flask -->
<g id="edge7" class="edge">
<title>flask_config&#45;&gt;flask</title><style>.edge>path:hover{stroke-width:8}</style>
<path fill="none" stroke="black" d="M362.31,-183.5C349.75,-174.43 333.26,-162.53 318.77,-152.08"/>
<polygon fill="#85b653" stroke="black" points="320.99,-149.36 310.83,-146.34 316.89,-155.03 320.99,-149.36"/>
</g>
<!-- flask_ctx&#45;&gt;flask -->
<g id="edge8" class="edge">
<title>flask_ctx&#45;&gt;flask</title><style>.edge>path:hover{stroke-width:8}</style>
<path fill="none" stroke="black" d="M35.28,-468.51C17.54,-422.13 -24.12,-293.2 19.41,-200"/>
<path fill="none" stroke="black" d="M19.41,-198C37.58,-156.06 177.31,-137.7 246.64,-131.11"/>
<polygon fill="blue" stroke="black" points="246.78,-134.61 256.42,-130.22 246.15,-127.64 246.78,-134.61"/>
</g>
<!-- flask_ctx&#45;&gt;flask_globals -->
<g id="edge10" class="edge">
<title>flask_ctx&#45;&gt;flask_globals</title><style>.edge>path:hover{stroke-width:8}</style>
<path fill="none" stroke="black" d="M79.25,-464.15C92.69,-456.17 107.93,-447.13 121.55,-439.05"/>
<polygon fill="blue" stroke="black" points="77.9,-460.88 71.08,-468.99 81.47,-466.9 77.9,-460.88"/>
<polygon fill="blue" stroke="black" points="123.01,-442.26 129.83,-434.14 119.44,-436.23 123.01,-442.26"/>
</g>
<!-- flask_globals&#45;&gt;flask -->
<g id="edge11" class="edge">
<title>flask_globals&#45;&gt;flask</title><style>.edge>path:hover{stroke-width:8}</style>
<path fill="none" stroke="black" d="M133.41,-270C127.02,-260.64 123.64,-259.58 114.41,-253 75.04,-224.93 -1.05,-243.81 19.41,-200"/>
<path fill="none" stroke="black" d="M175.41,-342C176.26,-305.73 153.86,-301.97 133.41,-272"/>
</g>
<!-- flask_globals&#45;&gt;flask_blueprints -->
<g id="edge13" class="edge">
<title>flask_globals&#45;&gt;flask_blueprints</title><style>.edge>path:hover{stroke-width:8}</style>
<path fill="none" stroke="black" d="M133.41,-270C125.3,-258.12 124.69,-242.27 126.38,-228.65"/>
<polygon fill="blue" stroke="black" points="129.81,-229.36 128.06,-218.91 122.91,-228.17 129.81,-229.36"/>
</g>
<!-- flask_helpers -->
<g id="node8" class="node">
<title>flask_helpers</title><style>.edge>path:hover{stroke-width:8}</style>
<polygon fill="blue" stroke="black" points="233.16,-289 161.66,-289 161.66,-253 233.16,-253 233.16,-289"/>
<text xml:space="preserve" text-anchor="middle" x="197.41" y="-267.12" font-family="Helvetica,sans-Serif" font-size="10.00" fill="white">flask.helpers</text>
</g>
<!-- flask_globals&#45;&gt;flask_helpers -->
<g id="edge15" class="edge">
<title>flask_globals&#45;&gt;flask_helpers</title><style>.edge>path:hover{stroke-width:8}</style>
<path fill="none" stroke="black" d="M175.41,-342C176.06,-327.78 180.34,-312.63 184.95,-300.07"/>
<polygon fill="blue" stroke="black" points="188.2,-301.37 188.63,-290.78 181.69,-298.79 188.2,-301.37"/>
</g>
<!-- flask_json -->
<g id="node9" class="node">
<title>flask_json</title><style>.edge>path:hover{stroke-width:8}</style>
<polygon fill="blue" stroke="black" points="105.41,-289 47.41,-289 47.41,-253 105.41,-253 105.41,-289"/>
<text xml:space="preserve" text-anchor="middle" x="76.41" y="-267.12" font-family="Helvetica,sans-Serif" font-size="10.00" fill="white">flask.json</text>
</g>
<!-- flask_globals&#45;&gt;flask_json -->
<g id="edge16" class="edge">
<title>flask_globals&#45;&gt;flask_json</title><style>.edge>path:hover{stroke-width:8}</style>
<path fill="none" stroke="black" d="M165.8,-396.66C169.75,-382.62 174.58,-362.25 175.41,-344"/>
<path fill="none" stroke="black" d="M175.41,-342C176.11,-326.64 143.79,-306.02 115.89,-291.14"/>
<polygon fill="blue" stroke="black" points="117.71,-288.15 107.23,-286.64 114.49,-294.36 117.71,-288.15"/>
</g>
<!-- flask_globals&#45;&gt;flask_templating -->
<g id="edge17" class="edge">
<title>flask_globals&#45;&gt;flask_templating</title><style>.edge>path:hover{stroke-width:8}</style>
<path fill="none" stroke="black" d="M175.41,-342C177.14,-304.07 223.26,-321.78 242.41,-289 253.04,-270.81 256.36,-247.12 257.12,-228.75"/>
<polygon fill="blue" stroke="black" points="260.62,-228.86 257.27,-218.81 253.62,-228.75 260.62,-228.86"/>
</g>
<!-- flask_wrappers -->
<g id="node12" class="node">
<title>flask_wrappers</title><style>.edge>path:hover{stroke-width:8}</style>
<polygon fill="blue" stroke="black" points="137.29,-361 57.54,-361 57.54,-325 137.29,-325 137.29,-361"/>
<text xml:space="preserve" text-anchor="middle" x="97.41" y="-339.12" font-family="Helvetica,sans-Serif" font-size="10.00" fill="white">flask.wrappers</text>
</g>
<!-- flask_globals&#45;&gt;flask_wrappers -->
<g id="edge18" class="edge">
<title>flask_globals&#45;&gt;flask_wrappers</title><style>.edge>path:hover{stroke-width:8}</style>
<path fill="none" stroke="black" d="M137.33,-388.36C131.85,-382.26 125.99,-375.75 120.5,-369.65"/>
<polygon fill="blue" stroke="black" points="134.53,-390.48 143.83,-395.57 139.74,-385.8 134.53,-390.48"/>
<polygon fill="blue" stroke="black" points="123.11,-367.32 113.82,-362.23 117.91,-372 123.11,-367.32"/>
</g>
<!-- flask_helpers&#45;&gt;flask -->
<g id="edge19" class="edge">
<title>flask_helpers&#45;&gt;flask</title><style>.edge>path:hover{stroke-width:8}</style>
<path fill="none" stroke="black" d="M197.89,-252.62C199.16,-233.66 203.42,-203.07 217.41,-181 225.31,-168.53 237.22,-157.8 248.87,-149.32"/>
<polygon fill="blue" stroke="black" points="250.56,-152.41 256.83,-143.87 246.61,-146.63 250.56,-152.41"/>
</g>
<!-- flask_helpers&#45;&gt;flask_app -->
<g id="edge20" class="edge">
<title>flask_helpers&#45;&gt;flask_app</title><style>.edge>path:hover{stroke-width:8}</style>
<path fill="none" stroke="black" d="M198.69,-289.38C200.4,-313.51 203.33,-358.54 204.41,-397 205.71,-443.36 202.81,-497.21 200.6,-529.4"/>
<polygon fill="blue" stroke="black" points="197.13,-528.88 199.91,-539.1 204.11,-529.38 197.13,-528.88"/>
</g>
<!-- flask_helpers&#45;&gt;flask_blueprints -->
<g id="edge21" class="edge">
<title>flask_helpers&#45;&gt;flask_blueprints</title><style>.edge>path:hover{stroke-width:8}</style>
<path fill="none" stroke="black" d="M181.59,-252.7C174.07,-244.47 164.94,-234.48 156.65,-225.42"/>
<polygon fill="blue" stroke="black" points="159.4,-223.24 150.07,-218.22 154.23,-227.96 159.4,-223.24"/>
</g>
<!-- flask_helpers&#45;&gt;flask_templating -->
<g id="edge22" class="edge">
<title>flask_helpers&#45;&gt;flask_templating</title><style>.edge>path:hover{stroke-width:8}</style>
<path fill="none" stroke="black" d="M211.99,-252.7C218.85,-244.56 227.17,-234.69 234.75,-225.7"/>
<polygon fill="blue" stroke="black" points="237.25,-228.16 241.02,-218.26 231.9,-223.65 237.25,-228.16"/>
</g>
<!-- flask_json&#45;&gt;flask -->
<g id="edge24" class="edge">
<title>flask_json&#45;&gt;flask</title><style>.edge>path:hover{stroke-width:8}</style>
<path fill="none" stroke="black" d="M46.97,-252.72C28.56,-239.5 9.99,-220.16 19.41,-200"/>
</g>
<!-- flask_signals -->
<g id="node10" class="node">
<title>flask_signals</title><style>.edge>path:hover{stroke-width:8}</style>
<ellipse fill="#85e722" stroke="black" cx="198.41" cy="-631" rx="41.86" ry="18"/>
<text xml:space="preserve" text-anchor="middle" x="198.41" y="-627.12" font-family="Helvetica,sans-Serif" font-size="10.00" fill="#000000">flask.signals</text>
</g>
<!-- flask_signals&#45;&gt;flask -->
<g id="edge26" class="edge">
<title>flask_signals&#45;&gt;flask</title><style>.edge>path:hover{stroke-width:8}</style>
<path fill="none" stroke="black" d="M413.41,-342C402.64,-270.86 471.64,-239.97 430.41,-181 427.18,-176.37 365.42,-154.89 323.56,-140.73"/>
<polygon fill="#85e722" stroke="black" points="324.89,-137.49 314.3,-137.62 322.66,-144.13 324.89,-137.49"/>
</g>
<!-- flask_signals&#45;&gt;flask_app -->
<g id="edge27" class="edge">
<title>flask_signals&#45;&gt;flask_app</title><style>.edge>path:hover{stroke-width:8}</style>
<path fill="none" stroke="black" d="M198.41,-612.7C198.41,-605.41 198.41,-596.73 198.41,-588.54"/>
<polygon fill="#85e722" stroke="black" points="201.91,-588.62 198.41,-578.62 194.91,-588.62 201.91,-588.62"/>
</g>
<!-- flask_signals&#45;&gt;flask_ctx -->
<g id="edge28" class="edge">
<title>flask_signals&#45;&gt;flask_ctx</title><style>.edge>path:hover{stroke-width:8}</style>
<path fill="none" stroke="black" d="M181.12,-614.26C154.15,-589.71 101.82,-542.08 69.71,-512.85"/>
<polygon fill="#85e722" stroke="black" points="72.1,-510.29 62.35,-506.15 67.39,-515.47 72.1,-510.29"/>
</g>
<!-- flask_signals&#45;&gt;flask_helpers -->
<g id="edge29" class="edge">
<title>flask_signals&#45;&gt;flask_helpers</title><style>.edge>path:hover{stroke-width:8}</style>
<path fill="none" stroke="black" d="M228.94,-618.39C297.67,-590.28 455.39,-513.61 413.41,-416"/>
<path fill="none" stroke="black" d="M413.41,-414C385.44,-342.89 299.12,-303.55 244.45,-285.18"/>
<polygon fill="#85e722" stroke="black" points="245.66,-281.9 235.07,-282.15 243.5,-288.56 245.66,-281.9"/>
</g>
<!-- flask_signals&#45;&gt;flask_templating -->
<g id="edge30" class="edge">
<title>flask_signals&#45;&gt;flask_templating</title><style>.edge>path:hover{stroke-width:8}</style>
<path fill="none" stroke="black" d="M413.41,-414C408.49,-383.28 420.89,-374.2 413.41,-344"/>
<path fill="none" stroke="black" d="M413.41,-342C398.95,-283.63 338.83,-241.86 297.33,-219.32"/>
<polygon fill="#85e722" stroke="black" points="299.04,-216.26 288.56,-214.71 295.78,-222.46 299.04,-216.26"/>
</g>
<!-- flask_templating&#45;&gt;flask -->
<g id="edge31" class="edge">
<title>flask_templating&#45;&gt;flask</title><style>.edge>path:hover{stroke-width:8}</style>
<path fill="none" stroke="black" d="M263.58,-180.7C266.7,-173.15 270.45,-164.12 273.94,-155.68"/>
<polygon fill="blue" stroke="black" points="277.15,-157.08 277.75,-146.5 270.68,-154.4 277.15,-157.08"/>
</g>
<!-- flask_wrappers&#45;&gt;flask -->
<g id="edge33" class="edge">
<title>flask_wrappers&#45;&gt;flask</title><style>.edge>path:hover{stroke-width:8}</style>
<path fill="none" stroke="black" d="M60.22,-324.69C41.03,-312.99 21.24,-295.4 19.41,-272"/>
<path fill="none" stroke="black" d="M19.41,-270C16.99,-238.98 6.25,-228.19 19.41,-200"/>
</g>
<!-- flask_wrappers&#45;&gt;flask_app -->
<g id="edge34" class="edge">
<title>flask_wrappers&#45;&gt;flask_app</title><style>.edge>path:hover{stroke-width:8}</style>
<path fill="none" stroke="black" d="M97.41,-416C87.72,-468.51 139.4,-516.11 172.44,-540.61"/>
</g>
<!-- flask_wrappers&#45;&gt;flask_blueprints -->
<g id="edge35" class="edge">
<title>flask_wrappers&#45;&gt;flask_blueprints</title><style>.edge>path:hover{stroke-width:8}</style>
<path fill="none" stroke="black" d="M19.41,-270C16.61,-234.11 58.98,-216.02 92.86,-207.33"/>
<polygon fill="blue" stroke="black" points="93.53,-210.77 102.47,-205.08 91.93,-203.96 93.53,-210.77"/>
</g>
<!-- flask_wrappers&#45;&gt;flask_ctx -->
<g id="edge36" class="edge">
<title>flask_wrappers&#45;&gt;flask_ctx</title><style>.edge>path:hover{stroke-width:8}</style>
<path fill="none" stroke="black" d="M97.41,-416C93.51,-437.13 77.63,-455.95 63.93,-468.74"/>
<path fill="none" stroke="black" d="M99.15,-361.42C99.96,-372.78 100.45,-388.19 98.96,-402.94"/>
<polygon fill="blue" stroke="black" points="95.54,-402.11 97.62,-412.5 102.47,-403.08 95.54,-402.11"/>
</g>
<!-- flask_wrappers&#45;&gt;flask_helpers -->
<g id="edge38" class="edge">
<title>flask_wrappers&#45;&gt;flask_helpers</title><style>.edge>path:hover{stroke-width:8}</style>
<path fill="none" stroke="black" d="M131.44,-318.18C141.81,-310.92 153.22,-302.93 163.58,-295.68"/>
<polygon fill="blue" stroke="black" points="129.81,-315.05 123.63,-323.65 133.83,-320.78 129.81,-315.05"/>
<polygon fill="blue" stroke="black" points="165.33,-298.73 171.51,-290.13 161.31,-293 165.33,-298.73"/>
</g>
<!-- flask_wrappers&#45;&gt;flask_json -->
<g id="edge39" class="edge">
<title>flask_wrappers&#45;&gt;flask_json</title><style>.edge>path:hover{stroke-width:8}</style>
<path fill="none" stroke="black" d="M88.95,-313.81C87.58,-309.24 86.16,-304.5 84.79,-299.93"/>
<polygon fill="blue" stroke="black" points="85.56,-314.67 91.78,-323.25 92.26,-312.66 85.56,-314.67"/>
<polygon fill="blue" stroke="black" points="88.2,-299.13 81.98,-290.55 81.5,-301.14 88.2,-299.13"/>
</g>
<!-- psycopg -->
<g id="node13" class="node">
<title>psycopg</title><style>.edge>path:hover{stroke-width:8}</style>
<ellipse fill="#40bfc0" stroke="black" cx="487.41" cy="-271" rx="31.21" ry="18"/>
<text xml:space="preserve" text-anchor="middle" x="487.41" y="-267.12" font-family="Helvetica,sans-Serif" font-size="10.00" fill="#000000">psycopg</text>
</g>
<!-- src_query_data -->
<g id="node15" class="node">
<title>src_query_data</title><style>.edge>path:hover{stroke-width:8}</style>
<ellipse fill="#7f4cb3" stroke="black" cx="468.41" cy="-127" rx="47.63" ry="18"/>
<text xml:space="preserve" text-anchor="middle" x="468.41" y="-123.12" font-family="Helvetica,sans-Serif" font-size="10.00" fill="#ffffff">src.query_data</text>
</g>
<!-- psycopg&#45;&gt;src_query_data -->
<g id="edge40" class="edge">
<title>psycopg&#45;&gt;src_query_data</title><style>.edge>path:hover{stroke-width:8}</style>
<path fill="none" stroke="black" d="M485.08,-252.59C481.87,-228.61 476.06,-185.14 472.21,-156.42"/>
<polygon fill="#40bfc0" stroke="black" points="475.7,-156.06 470.9,-146.61 468.76,-156.99 475.7,-156.06"/>
</g>
<!-- src -->
<g id="node14" class="node">
<title>src</title><style>.edge>path:hover{stroke-width:8}</style>
<ellipse fill="#8553b6" stroke="black" cx="375.41" cy="-127" rx="27" ry="18"/>
<text xml:space="preserve" text-anchor="middle" x="375.41" y="-123.12" font-family="Helvetica,sans-Serif" font-size="10.00" fill="#ffffff">src</text>
</g>
<!-- src&#45;&gt;app_py -->
<g id="edge41" class="edge">
<title>src&#45;&gt;app_py</title><style>.edge>path:hover{stroke-width:8}</style>
<path fill="none" stroke="black" d="M375.49,-108.81C375.52,-98.44 375.52,-84.96 375.41,-73"/>
</g>
<!-- src_query_data&#45;&gt;app_py -->
<g id="edge42" class="edge">
<title>src_query_data&#45;&gt;app_py</title><style>.edge>path:hover{stroke-width:8}</style>
<path fill="none" stroke="black" d="M434.9,-113.86C408.3,-103.16 375.54,-87.12 375.41,-73"/>
</g>
</g>
</svg>
